<svg xmlns:mydata="http://www.w3.org/2000/svg" mydata:contrastcolor="DDBCB0" mydata:template="default" mydata:presentation="2.5" mydata:layouttype="" mydata:specialfontid="" mydata:id1="577" mydata:id2="197" mydata:companyname="Traveloo" mydata:companytagline="" version="1.1" xmlns="http://www.w3.org/2000/svg" xmlns:xlink="http://www.w3.org/1999/xlink" viewBox="0 0 550 470"><g fill="#002e5d" fill-rule="nonzero" stroke="none" stroke-width="1" stroke-linecap="butt" stroke-linejoin="miter" stroke-miterlimit="10" stroke-dasharray="" stroke-dashoffset="0" font-family="none" font-weight="none" font-size="none" text-anchor="none" style="mix-blend-mode: normal"><g><g><path d="M85.03574,191.61342c0.12381,3.71422 -0.12381,10.02838 0,11.63788h14.98067v75.02716h11.88549v-75.02716h14.98067c0.12381,-1.60949 -0.12381,-7.92366 0,-11.63788z"></path><path d="M179.50062,265.89773c-2.72376,-0.74284 -5.07609,-1.60949 -7.05701,-3.21899c-5.07609,-4.33325 -7.30462,-9.90458 -7.42843,-16.46636c0,-1.23807 0.49523,-1.98092 1.36188,-2.84757c4.08564,-3.59041 7.55224,-7.67605 9.78077,-12.75214c3.96183,-8.91412 5.07609,-17.95204 0.12381,-26.86616c-4.08564,-7.55224 -10.77123,-11.26645 -18.9425,-12.0093c-7.05701,-0.61904 -14.36163,-0.37142 -21.41864,-0.49523h-2.35234c-0.24761,0.49523 -0.37142,0.61904 -0.37142,0.86665v84.18889c0,0.61904 0.12381,1.11426 0.12381,1.60949l0.24761,0.24761h11.39026v-24.51382l8.29508,-2.59995l0.49523,1.98092c0.86665,3.96183 2.22853,7.79985 4.45706,11.26645c4.33325,6.8094 10.276,11.26645 18.32346,12.99975c0.86665,0.24761 1.85711,0.24761 2.97137,0.37142zM145.32984,203.49891h9.16173c2.22853,-0.12381 4.20944,0.49523 6.31417,1.36188c4.70467,1.98092 6.56178,5.94275 6.8094,10.77123c0.24761,5.44752 -1.85711,10.276 -5.1999,14.60925c-4.08564,5.57132 -9.90458,8.5427 -16.34255,10.52361c-0.24761,0.12381 -0.49523,0.12381 -0.74284,0.12381z"></path><path d="M228.89969,277.90703c-4.08564,-28.97088 -8.17127,-57.69415 -12.25691,-86.41742c-5.44752,0 -10.64742,0 -15.84732,0c-0.74284,2.22853 -15.22828,84.68412 -14.85686,86.54122c1.98092,0 3.83802,0 5.81894,0c1.85711,0 3.83802,0 5.81894,0c0.61904,-3.09518 1.11426,-5.94275 1.60949,-8.79031c1.7333,-0.61904 12.38072,-0.74284 16.34255,-0.24761c0.49523,2.84757 0.99046,5.81894 1.48569,8.91412c3.96183,0 7.67605,0 11.88549,0zM213.91902,256.736c-4.33325,0 -8.29508,0 -12.62833,0c2.22853,-12.87595 4.45706,-25.7519 6.68559,-38.50404c0.12381,-0.12381 0.24761,-0.12381 0.37142,-0.12381c1.85711,12.87595 3.71422,25.62809 5.57132,38.62784z"></path><path d="M245.61366,277.90703h11.76168l19.93296,-86.29361h-12.25691l-12.99975,56.57988c-2.47614,-9.53315 -4.33325,-18.9425 -6.31417,-28.35185l-5.94275,-28.22804h-12.1331z"></path><path d="M283.49866,191.73723c0,28.84707 0,57.32273 0,86.046c0.86665,0 1.48569,0 2.10472,0c6.43797,-0.24761 12.75214,-0.37142 19.06631,-0.49523c5.44752,0 11.01884,0 16.46636,0c0.86665,0 1.7333,-0.12381 2.59995,-0.24761c0,-3.83802 0,-7.42843 0,-11.39026c-9.40935,-0.24761 -18.69489,-0.12381 -28.10423,-0.37142c-0.12381,-0.49523 -0.12381,-0.74284 -0.24761,-0.99046c0,-4.58087 -0.12381,-9.16173 -0.12381,-13.7426c0,-2.72376 1.23807,-4.82848 3.34279,-6.56178c3.09518,-2.72376 6.8094,-4.08564 10.89503,-4.58087c1.60949,-0.12381 3.21899,-0.37142 4.82848,-0.49523c0,-3.96183 0,-7.67605 0,-11.51407c-6.8094,-0.61904 -12.99975,1.23807 -19.06631,4.20944c0,-9.53315 0,-18.69489 0,-28.22804c0.86665,0 1.7333,0.12381 2.47614,0c8.04747,0 16.09493,-0.12381 24.01859,-0.24761c0.61904,0 1.36188,-0.12381 1.98092,-0.24761c0,-3.83802 0,-7.42843 0,-11.14265c-13.49498,0 -26.74235,0 -40.23734,0z"></path><path d="M342.05946,191.48961h-11.39026c-0.61904,2.72376 -0.86665,83.07462 -0.37142,86.046h39.86591v-11.76168h-28.35185z"></path><path d="M376.60167,235.06974c0,6.68559 -0.12381,13.49498 0,20.18057c0,1.7333 0.24761,3.59041 0.74284,5.32371c1.85711,6.31417 5.57132,11.14265 11.01884,14.73306c3.83802,2.59995 8.04747,4.33325 12.62833,4.20944c7.92366,-0.37142 14.60925,-3.4666 19.56154,-9.53315c1.7333,1.98092 3.83802,3.83802 6.19036,5.32371c3.83802,2.59995 8.04747,4.33325 12.62833,4.20944c8.17127,-0.37142 14.98067,-3.71422 20.05676,-10.15219c3.59041,-4.58087 5.57132,-9.90458 5.57132,-15.97113c-0.12381,-12.75214 0,-25.38047 0,-38.13261c0,-0.86665 -0.12381,-1.85711 -0.24761,-2.72376c-2.35234,-11.51407 -13.24737,-23.52337 -26.24712,-21.91387c-7.42843,0.74284 -13.49498,3.96183 -17.95204,9.65696c-4.82848,-6.31417 -12.25691,-10.64742 -20.42819,-9.65696c-8.17127,0.74284 -14.60925,4.70467 -19.19011,11.39026c-2.84757,4.20944 -4.58087,8.79031 -4.45706,13.86641c0.24761,6.43797 0.12381,12.75214 0.12381,19.19011zM426.74358,235.06974c0,-6.31417 0.12381,-12.62833 0,-18.81869c-0.12381,-6.06655 5.07609,-12.38072 11.14265,-13.49498c3.83802,-0.74284 7.18082,0.74284 10.15219,3.21899c3.59041,3.09518 5.1999,6.9332 5.1999,11.76168c-0.12381,11.76168 -0.12381,23.64717 0,35.40886c0,7.18082 -6.31417,13.37118 -12.38072,14.23783c-3.21899,0.37142 -5.94275,-0.74284 -8.29508,-2.59995c-3.71422,-2.84757 -5.94275,-6.56178 -5.81894,-11.51407c0.12381,-6.06655 0,-12.1331 0,-18.19966zM388.36335,235.06974c0,-6.31417 0.12381,-12.62833 0,-18.81869c-0.12381,-6.06655 5.07609,-12.38072 11.14265,-13.49498c3.83802,-0.74284 7.18082,0.74284 10.15219,3.21899c3.59041,3.09518 5.1999,6.9332 5.1999,11.76168c-0.12381,11.76168 -0.12381,23.64717 0,35.40886c0,7.18082 -6.31417,13.37118 -12.38072,14.23783c-3.21899,0.37142 -5.94275,-0.74284 -8.29508,-2.59995c-3.71422,-2.84757 -5.94275,-6.56178 -5.81894,-11.51407c0.12381,-6.06655 0,-12.1331 0,-18.19966z"></path></g></g></g></svg>